<svg id="_2" data-name="2" xmlns="http://www.w3.org/2000/svg" viewBox="0 0 512 512"><defs><style>.cls-1{fill:#000;}</style></defs><title>icn_time</title><path class="cls-1" d="M256,0C114.84,0,0,114.84,0,256S114.84,512,256,512,512,397.16,512,256,397.16,0,256,0Zm0,451.05c-107.55,0-195-87.49-195-195S148.45,61,256,61,451.05,148.45,451.05,256,363.55,451.05,256,451.05Z" transform="translate(0 0)"/><path class="cls-1" d="M258.43,115.76A23.19,23.19,0,0,0,235.24,139V244l-74.05,74A23.2,23.2,0,0,0,194,350.81l87.63-87.63V139A23.19,23.19,0,0,0,258.43,115.76Z" transform="translate(0 0)"/></svg>