<svg xmlns="http://www.w3.org/2000/svg" viewBox="0 0 77.52 77.52"><defs><style>path,rect{fill:#fff;}.cls-1{fill:none;stroke:#fff;stroke-linecap:round;stroke-linejoin:round;stroke-width:1.44px;}</style></defs><title>mainlogo</title><rect class="cls-1" x="0.72" y="0.72" width="76.08" height="76.09"/><path d="M57.09,50.45H41.35a.72.72,0,0,1,0-1.44H57.09a.72.72,0,0,1,0,1.44Z"/><path d="M29.17,19.77a.72.72,0,0,1-.72-.72V8a.72.72,0,1,1,1.44,0V19.05A.72.72,0,0,1,29.17,19.77Z"/><path d="M29.17,17.56a.71.71,0,0,1-.54-.24L20.76,8.38a.71.71,0,0,1,.07-1,.72.72,0,0,1,1,.06l7.87,8.94a.71.71,0,0,1-.07,1A.69.69,0,0,1,29.17,17.56Z"/><path d="M29.17,17.56a.74.74,0,0,1-.48-.18.72.72,0,0,1-.06-1L36.5,7.43a.72.72,0,0,1,1-.06.7.7,0,0,1,.06,1l-7.86,8.94A.71.71,0,0,1,29.17,17.56Z"/><path d="M22.54,32.59a.69.69,0,0,1-.47-.18.73.73,0,0,1-.07-1l7.87-8.93a.7.7,0,0,1,1-.06.71.71,0,0,1,.07,1l-7.87,8.93A.72.72,0,0,1,22.54,32.59Z"/><path d="M20.6,28.52a.73.73,0,0,1-.47-.18.7.7,0,0,1-.06-1l4.28-4.87a.72.72,0,0,1,1.08.95l-4.29,4.87A.71.71,0,0,1,20.6,28.52Z"/><path d="M28.06,32.59a.69.69,0,0,1-.47-.18.73.73,0,0,1-.07-1l4.29-4.86a.71.71,0,0,1,1-.07.73.73,0,0,1,.07,1L28.6,32.34A.72.72,0,0,1,28.06,32.59Z"/><path d="M41.35,27.39a.72.72,0,0,1-.54-1.19l4.29-4.87a.72.72,0,0,1,1.08,1l-4.29,4.87A.71.71,0,0,1,41.35,27.39Z"/><path d="M41.35,34.82a.71.71,0,0,1-.47-.18.73.73,0,0,1-.07-1L43,31.19a.7.7,0,0,1,1-.06.71.71,0,0,1,.07,1l-2.15,2.43A.69.69,0,0,1,41.35,34.82Z"/><path d="M57.09,34.82a.69.69,0,0,1-.54-.25L54.4,32.14a.71.71,0,0,1,.07-1,.7.7,0,0,1,1,.06l2.15,2.43a.73.73,0,0,1-.07,1A.69.69,0,0,1,57.09,34.82Z"/><path d="M44.87,34.82a.72.72,0,0,1-.54-1.2l2.14-2.43a.72.72,0,0,1,1-.06.7.7,0,0,1,.06,1l-2.14,2.43A.69.69,0,0,1,44.87,34.82Z"/><path d="M57.09,27.39a.71.71,0,0,1-.54-.24l-4.29-4.87a.71.71,0,0,1,.07-1,.72.72,0,0,1,1,.06l4.29,4.87a.71.71,0,0,1-.07,1A.69.69,0,0,1,57.09,27.39Z"/><path d="M20.6,46.38a.73.73,0,0,1-.47-.18.7.7,0,0,1-.06-1l4.28-4.87a.73.73,0,0,1,1-.06.72.72,0,0,1,.06,1l-4.29,4.87A.71.71,0,0,1,20.6,46.38Z"/><path d="M28.06,50.45a.69.69,0,0,1-.47-.18.73.73,0,0,1-.07-1l4.29-4.86a.71.71,0,0,1,1-.07.73.73,0,0,1,.07,1L28.6,50.2A.69.69,0,0,1,28.06,50.45Z"/><path d="M22.54,50.45a.69.69,0,0,1-.47-.18.73.73,0,0,1-.07-1l7.87-8.93a.72.72,0,0,1,1-.06.71.71,0,0,1,.07,1L23.08,50.2A.69.69,0,0,1,22.54,50.45Z"/><path d="M30.41,41.52a.72.72,0,0,1-.54-.25L22,32.34a.72.72,0,0,1,1.08-1L31,40.32a.73.73,0,0,1-.07,1A.69.69,0,0,1,30.41,41.52Z"/><path d="M49.22,19.77a.72.72,0,0,1-.72-.72V8a.72.72,0,1,1,1.44,0V19.05A.72.72,0,0,1,49.22,19.77Z"/><path d="M49.22,50.45a.72.72,0,0,1-.72-.72V22.93a.72.72,0,0,1,1.44,0v26.8A.72.72,0,0,1,49.22,50.45Z"/><path d="M57.09,50.45a.72.72,0,0,1-.72-.72V36.33a.72.72,0,0,1,1.44,0v13.4A.72.72,0,0,1,57.09,50.45Z"/><path d="M41.35,50.45a.72.72,0,0,1-.72-.72V36.33a.72.72,0,0,1,1.44,0v13.4A.72.72,0,0,1,41.35,50.45Z"/><path d="M57.09,37.05H41.35a.72.72,0,0,1,0-1.44H57.09a.72.72,0,0,1,0,1.44Z"/><path d="M57.09,30.15H41.35a.72.72,0,1,1,0-1.43H57.09a.72.72,0,1,1,0,1.43Z"/><path d="M57.09,43.75H41.35a.72.72,0,1,1,0-1.44H57.09a.72.72,0,0,1,0,1.44Z"/><path d="M49.22,17.56a.71.71,0,0,1-.54-.24L40.81,8.38a.71.71,0,0,1,.07-1,.72.72,0,0,1,1,.06l7.87,8.94a.72.72,0,0,1-.06,1A.74.74,0,0,1,49.22,17.56Z"/><path d="M49.22,17.56a.69.69,0,0,1-.47-.18.71.71,0,0,1-.07-1l7.87-8.94a.72.72,0,0,1,1-.06.71.71,0,0,1,.07,1l-7.87,8.94A.71.71,0,0,1,49.22,17.56Z"/><rect x="20.43" y="57.69" width="0.81" height="11.92"/><path d="M21.25,69.85h-.82a.24.24,0,0,1-.24-.24V57.69a.24.24,0,0,1,.24-.24h.82a.24.24,0,0,1,.24.24V69.61A.24.24,0,0,1,21.25,69.85Zm-.58-.48H21V57.93h-.34Z"/><rect x="41.4" y="57.69" width="0.81" height="11.92"/><path d="M42.21,69.85H41.4a.23.23,0,0,1-.24-.24V57.69a.24.24,0,0,1,.24-.24h.81a.24.24,0,0,1,.24.24V69.61A.24.24,0,0,1,42.21,69.85Zm-.57-.48H42V57.93h-.33Z"/><rect x="20.84" y="63.25" width="5.96" height="0.81"/><path d="M26.8,64.3h-6a.24.24,0,0,1-.24-.24v-.81a.24.24,0,0,1,.24-.24h6a.24.24,0,0,1,.24.24v.81A.24.24,0,0,1,26.8,64.3Zm-5.72-.48h5.48v-.33H21.08Z"/><rect x="51.13" y="63.25" width="5.96" height="0.81"/><path d="M57.09,64.3h-6a.24.24,0,0,1-.24-.24v-.81a.24.24,0,0,1,.24-.24h6a.24.24,0,0,1,.24.24v.81A.24.24,0,0,1,57.09,64.3Zm-5.72-.48h5.48v-.33H51.37Z"/><rect x="51.13" y="57.69" width="0.81" height="6.37"/><path d="M51.94,64.3h-.81a.24.24,0,0,1-.24-.24V57.69a.24.24,0,0,1,.24-.24h.81a.24.24,0,0,1,.24.24v6.37A.24.24,0,0,1,51.94,64.3Zm-.57-.48h.33V57.93h-.33Z"/><rect x="56.28" y="63.25" width="0.81" height="6.37"/><path d="M57.09,69.85h-.81a.23.23,0,0,1-.24-.24V63.25a.24.24,0,0,1,.24-.24h.81a.24.24,0,0,1,.24.24v6.36A.24.24,0,0,1,57.09,69.85Zm-.58-.48h.34V63.49h-.34Z"/><rect x="51.13" y="68.8" width="5.96" height="0.81"/><path d="M57.09,69.85h-6a.24.24,0,0,1-.24-.24V68.8a.24.24,0,0,1,.24-.24h6a.24.24,0,0,1,.24.24v.81A.24.24,0,0,1,57.09,69.85Zm-5.72-.48h5.48V69H51.37Z"/><rect x="48.15" y="57.69" width="8.94" height="0.81"/><path d="M57.09,58.75H48.15a.24.24,0,0,1-.24-.24v-.82a.24.24,0,0,1,.24-.24h8.94a.24.24,0,0,1,.24.24v.82A.24.24,0,0,1,57.09,58.75Zm-8.7-.48h8.46v-.34H48.39Z"/><rect x="26.57" y="68.8" width="5.96" height="0.81"/><path d="M32.53,69.85h-6a.24.24,0,0,1-.24-.24V68.8a.24.24,0,0,1,.24-.24h6a.24.24,0,0,1,.24.24v.81A.24.24,0,0,1,32.53,69.85Zm-5.72-.48h5.48V69H26.81Z"/><rect x="36.25" y="68.8" width="5.96" height="0.81"/><path d="M42.21,69.85h-6a.24.24,0,0,1-.24-.24V68.8a.24.24,0,0,1,.24-.24h6a.24.24,0,0,1,.24.24v.81A.24.24,0,0,1,42.21,69.85Zm-5.72-.48H42V69H36.49Z"/><rect x="26.57" y="57.69" width="0.81" height="11.92"/><path d="M27.38,69.85h-.81a.24.24,0,0,1-.24-.24V57.69a.24.24,0,0,1,.24-.24h.81a.24.24,0,0,1,.24.24V69.61A.24.24,0,0,1,27.38,69.85Zm-.57-.48h.33V57.93h-.33Z"/><rect x="36.4" y="57.69" width="0.81" height="11.92" transform="translate(-19.56 16.44) rotate(-20.01)"/><path d="M38.46,69.63a.2.2,0,0,1-.1,0,.25.25,0,0,1-.12-.13L34.16,58.27a.23.23,0,0,1,.15-.3l.76-.28a.22.22,0,0,1,.18,0,.21.21,0,0,1,.13.13L39.45,69a.23.23,0,0,1-.14.31l-.76.28ZM34.7,58.34l3.91,10.75.31-.12L35,58.22Z"/><rect x="26.01" y="63.25" width="11.92" height="0.81" transform="translate(-38.78 71.91) rotate(-69.99)"/><path d="M30.31,69.63h-.08l-.76-.28a.24.24,0,0,1-.15-.31l4.08-11.2a.22.22,0,0,1,.12-.13.25.25,0,0,1,.19,0l.76.28a.23.23,0,0,1,.14.3L30.54,69.48a.27.27,0,0,1-.13.13A.16.16,0,0,1,30.31,69.63ZM29.85,69l.32.12,3.91-10.75-.31-.12Z"/><rect x="33.62" y="57.69" width="1.53" height="0.81"/><path d="M35.15,58.75H33.62a.24.24,0,0,1-.24-.24v-.82a.24.24,0,0,1,.24-.24h1.53a.24.24,0,0,1,.24.24v.82A.24.24,0,0,1,35.15,58.75Zm-1.29-.48h1v-.34h-1Z"/><rect x="48.96" y="55.25" width="2.17" height="0.81"/><path d="M51.13,56.3H49a.24.24,0,0,1-.24-.24v-.81A.24.24,0,0,1,49,55h2.17a.24.24,0,0,1,.24.24v.81A.24.24,0,0,1,51.13,56.3Zm-1.93-.48h1.69v-.33H49.2Z"/><rect x="48.15" y="57.69" width="0.81" height="11.92"/><path d="M49,69.85h-.81a.24.24,0,0,1-.24-.24V57.69a.24.24,0,0,1,.24-.24H49a.24.24,0,0,1,.24.24V69.61A.24.24,0,0,1,49,69.85Zm-.57-.48h.33V57.93h-.33Z"/><rect x="44.77" y="57.01" width="0.81" height="13.29" transform="translate(-25.79 31.17) rotate(-30.04)"/><path d="M48.15,69.85h-.06a.28.28,0,0,1-.15-.11L41.3,58.22a.24.24,0,0,1,.08-.33l.71-.4a.28.28,0,0,1,.18,0,.33.33,0,0,1,.15.11l6.64,11.51a.24.24,0,0,1-.09.33l-.7.4A.19.19,0,0,1,48.15,69.85ZM41.83,58.19l6.41,11.09.28-.17L42.12,58Z"/></svg>